subject_03
version=1
nRows=182
nColumns=3
inDegrees=yes
endheader
time	r_shoulder_elev	r_elbow_flex
0.0000	26.780303	26.851005
0.0100	26.780303	26.852053
0.0200	26.780303	26.857627
0.0300	26.780303	26.873403
0.0400	26.780303	26.904971
0.0500	26.780303	26.957190
0.0600	26.780303	27.033744
0.0700	26.780303	27.137225
0.0800	26.780303	27.269729
0.0900	26.780303	27.433649
0.1000	26.780303	27.632209
0.1100	26.780303	27.869410
0.1200	26.780303	28.149390
0.1300	26.780303	28.475544
0.1400	26.780303	28.849874
0.1500	26.780303	29.272930
0.1600	26.780303	29.744366
0.1700	26.780303	30.263799
0.1800	26.780303	30.831528
0.1900	26.780303	31.448751
0.2000	26.780303	32.117225
0.2100	26.780303	32.838607
0.2200	26.780303	33.613854
0.2300	26.780303	34.442969
0.2400	26.780303	35.325170
0.2500	26.780303	36.259286
0.2600	26.780303	37.244140
0.2700	26.780303	38.278705
0.2800	26.780303	39.362056
0.2900	26.780303	40.493223
0.3000	26.780303	41.671125
0.3100	26.780303	42.894608
0.3200	26.780303	44.162511
0.3300	26.780303	45.473615
0.3400	26.780303	46.826429
0.3500	26.780303	48.218932
0.3600	26.780303	49.648490
0.3700	26.780303	51.112137
0.3800	26.780303	52.607158
0.3900	26.780303	54.131664
0.4000	26.780303	55.684764
0.4100	26.780303	57.266053
0.4200	26.780303	58.874545
0.4300	26.780303	60.507589
0.4400	26.780303	62.160439
0.4500	26.780303	63.826943
0.4600	26.780303	65.501214
0.4700	26.780303	67.179543
0.4800	26.780303	68.861511
0.4900	26.780303	70.549513
0.5000	26.780303	72.246661
0.5100	26.780303	73.953924
0.5200	26.780303	75.667919
0.5300	26.780303	77.380589
0.5400	26.780303	79.081215
0.5500	26.780303	80.759980
0.5600	26.780303	82.411482
0.5700	26.780303	84.036428
0.5800	26.780303	85.640559
0.5900	26.780303	87.231123
0.6000	26.780303	88.812484
0.6100	26.780303	90.382914
0.6200	26.780303	91.934132
0.6300	26.780303	93.453840
0.6400	26.780303	94.930124
0.6500	26.780303	96.355669
0.6600	26.780303	97.729896
0.6700	26.780303	99.058096
0.6800	26.780303	100.348103
0.6900	26.780303	101.606126
0.7000	26.780303	102.833624
0.7100	26.780303	104.026522
0.7200	26.780303	105.176869
0.7300	26.780303	106.275932
0.7400	26.780303	107.317235
0.7500	26.780303	108.298259
0.7600	26.780303	109.220348
0.7700	26.780303	110.087216
0.7800	26.780303	110.902987
0.7900	26.780303	111.670691
0.8000	26.780303	112.391651
0.8100	26.780303	113.065700
0.8200	26.780303	113.691766
0.8300	26.780303	114.268426
0.8400	26.780303	114.794243
0.8500	26.780303	115.268008
0.8600	26.780303	115.689067
0.8700	26.780303	116.057825
0.8800	26.780303	116.376233
0.8900	26.780303	116.647974
0.9000	26.780303	116.878095
0.9100	26.780303	117.072126
0.9200	26.780303	117.235012
0.9300	26.780303	117.370293
0.9400	26.780303	117.479880
0.9500	26.780303	117.564491
0.9600	26.780303	117.624518
0.9700	26.780303	117.660988
0.9800	26.780303	117.676350
0.9900	26.780303	117.674960
1.0000	26.780303	117.663287
1.0100	26.780303	117.648874
1.0200	26.780303	117.636930
1.0300	26.780303	117.631819
1.0400	26.780303	117.636395
1.0500	26.780303	117.650447
1.0600	26.780303	117.669899
1.0700	26.780303	117.687539
1.0800	26.780303	117.695456
1.0900	26.780303	117.688521
1.1000	26.780303	117.667389
1.1100	26.780303	117.639341
1.1200	26.780303	117.616008
1.1300	26.780303	117.608485
1.1400	26.780303	117.621855
1.1500	26.780303	117.651845
1.1600	26.780303	117.685701
1.1700	26.780303	117.707457
1.1800	26.780303	117.705487
1.1900	26.780303	117.678735
1.2000	26.780303	117.638259
1.2100	26.780303	117.601885
1.2200	26.780303	117.582885
1.2300	26.780303	117.583895
1.2400	26.780303	117.593283
1.2500	26.780303	117.587683
1.2600	26.780303	117.540831
1.2700	26.780303	117.434593
1.2800	26.780303	117.266640
1.2900	26.780303	117.050635
1.3000	26.780303	116.808422
1.3100	26.780303	116.557854
1.3200	26.780303	116.302303
1.3300	26.780303	116.027298
1.3400	26.780303	115.706254
1.3500	26.780303	115.312616
1.3600	26.780303	114.832361
1.3700	26.780303	114.270455
1.3800	26.780303	113.647869
1.3900	26.780303	112.990574
1.4000	26.780303	112.316119
1.4100	26.780303	111.624660
1.4200	26.780303	110.899046
1.4300	26.780303	110.113829
1.4400	26.780303	109.248433
1.4500	26.780303	108.297581
1.4600	26.780303	107.273588
1.4700	26.780303	106.199507
1.4800	26.780303	105.096968
1.4900	26.780303	103.975314
1.5000	26.780303	102.827812
1.5100	26.780303	101.636786
1.5200	26.780303	100.384645
1.5300	26.780303	99.064590
1.5400	26.780303	97.685064
1.5500	26.780303	96.265544
1.5600	26.780303	94.826120
1.5700	26.780303	93.376772
1.5800	26.780303	91.912449
1.5900	26.780303	90.416798
1.6000	26.780303	88.872567
1.6100	26.780303	87.272904
1.6200	26.780303	85.627209
1.6300	26.780303	83.958091
1.6400	26.780303	82.290894
1.6500	26.780303	80.641368
1.6600	26.780303	79.008176
1.6700	26.780303	77.374383
1.6800	26.780303	75.717251
1.6900	26.780303	74.021195
1.7000	26.780303	72.287070
1.7100	26.780303	70.532935
1.7200	26.780303	68.786052
1.7300	26.780303	67.070463
1.7400	26.780303	65.396727
1.7500	26.780303	63.759011
1.7600	26.780303	62.140629
1.7700	26.780303	60.524588
1.7800	26.780303	58.903236
1.7900	26.780303	57.281977
1.8000	26.780303	55.675607
1.8100	26.780303	54.100032
